<svg xmlns="http://www.w3.org/2000/svg" xmlns:xlink="http://www.w3.org/1999/xlink" width="1440" height="888" viewBox="0 0 1440 888">
  <defs>
    <rect id="rect-1" width="1440" height="888" x="0" y="0"/>
    <path id="path-146" fill-rule="evenodd" d="M59.38666534 58.44999695c0-12.1421318 9.85787201-22 22-22h1c10.57806397 0 19.4224472 7.48179245 21.52547455 17.43769455 3.47168732 12.22578811 8.28128815 42.00286484 3.59179688 46.58476639h-29c-.0040741-.07076264-.00804138-.14128113-.01189423-.21155549-10.77623749-1.41890716-19.1053772-10.64988708-19.1053772-21.81090545v-20z"/>
    <mask id="mask-147" x="-394.125" y="-428" maskContentUnits="userSpaceOnUse" maskUnits="userSpaceOnUse">
      <rect width="1440" height="888" x="-394.125" y="-428" fill="black"/>
      <use fill="white" xlink:href="#path-146"/>
    </mask>
    <path id="path-149" fill-rule="evenodd" d="M54.18819809 53.6004486c.78659439-.6890602 1.54760742-1.35570525 2.30273819-1.95239257l-.03639603-.777359S64.9574051 35.44999694 78.0291977 35.44999694c13.07180023 0 17.19779206 5.38832092 20.71080017 9.96308517-2.6270523 7.98540116-12.8222351 9.16919327-21.88095092 14.14700318-1.06788636-.76873398-2.42922974-1.2296753-3.91114808-1.2296753-3.4265747 0-6.20851898 2.4644661-6.20851898 5.5s2.78194428 5.50000382 6.20851898 5.50000382c.09455872 0 .18862916-.00187683.28216553-.00559235 1.24822998 11.87800598.74815369 25.44243622-2.9718399 28.66230011H37.522377c-.93972778-14.46407318 3.28392792-18.59017181 7.5998726-22.80641937 4.06096648-3.96717072 8.20363998-8.01415253 8.20363998-20.82791138.29138183-.2522087.57851028-.50373459.8623085-.75234222z"/>
  </defs>
  <g transform="translate(256 48)">
    <path fill="rgb(88,139,98)" fill-rule="evenodd" d="M860.00377151 233.38121322c-.533433-.38791437-1.79898802-.52546304-2.38774773-.64166796-2.44725005-.48243673-4.96826904-.69248644-7.46319053-.69248644-7.69319653.01151886-15.51131312.76668142-23.07680587 2.07373262-4.8033328.82969633-10.61020167 3.6220022-15.38848087 2.10557887-8.32440819-2.64222198-16.7375479-2.51246547-24.63534887 1.25962063-7.22065771 3.44921938-12.70217768 10.00005976-15.90103587 17.07839592-.48262986 1.06854316-2.44063868 5.00121564-2.99494969 7.65224615-.23696534.54206375-.46453559 1.08785418-.66983596 1.64177557-.58249631 1.57266245-1.10479438 3.17310566-1.59020798 4.77659798-.20738817.68401669-.7289903 2.1943418-.10960952 2.48637865-.9896174 1.82641603-1.86684153 3.7087324-2.59757167 5.65203092-2.12503285 5.65169214-4.44840674 11.85120745-5.19514335 17.84135064-.27663355 2.2180571-.28707256 4.4489882-.0302731 6.67144956.12700785 1.09835667.07446487 3.30726644.81911369 4.1423834 1.5804649 1.77220966 2.39192333-.70874835 2.21376436-1.89044732-1.36054993-9.00638915 1.26659892-17.46393875 4.38020526-25.9299581 2.01333552-5.47450506 5.32145527-10.48283529 9.027301-15.01855368 2.99912528-3.67146552 6.2164257-6.56269803 10.32765267-8.99690304 5.02742339-2.97660755 10.40246554-5.3830318 15.7280964-7.79690941 3.50263316-1.58824678 7.00944191-3.13380604 10.60985371-4.5021782.80067146-.30457208 2.06031104-1.08514387 2.94797418-1.08819298 1.87728053-.0067758 4.53748622 1.37853587 6.35074087 1.89383521 5.96414983 1.69564316 12.00450438 3.86660847 18.16838711 4.7325553 3.95359804.55595413 7.65770393-.0697907 11.35519845-1.38700561.37789188-.13416078 1.01119133-.4800652 1.78715715-.9740208 2.74510957-1.05600793 5.34198531-2.38508048 7.60307315-4.3022922 1.30278746-1.10479367 2.48483045-2.53245406 3.5628314-3.83916648.32256516-.39062469.46523152-.83850486.47010306-1.2640249.24427264-.12772377.40642514-.2767913.44296165-.45092928.26897829-1.28604624-2.18383923-1.30976152-3.7542131-1.23319502"/>
    <path fill="rgb(221,227,233)" fill-rule="evenodd" d="M94.85229095 355.14829226c-1.50931397 1.22221896-2.98960319 2.47087175-4.43382206 3.76960223-1.10062045.99026445-3.0484819 2.17512022-3.44360762 3.6751915-.41074018 1.55827276.88598238 3.017353 1.91038349 3.95971808 5.41701116 4.98369978 11.51674365 8.35314917 19.0229539 8.91337303 11.55778354.86300365 21.61642761-2.08838003 31.64433022-7.89591955 7.04407962-4.07946145 11.710034-10.11383222 12.7290945-18.26192056 8.38884245 3.48654726 16.50248024 8.29195015 23.39717565 14.19000348 3.40197226 2.91042652 6.33202106 6.13467363 9.0423479 9.70856347 1.73564149 2.2894498 3.41475688 4.61591257 4.97292425 7.03155619.67732982 1.04951245 1.36582129 2.91089063 2.48406576 3.51530937 1.3127771.71015682 2.89930551-.4028739 2.83429005-1.86237134-.05411582-1.21469329-1.36597825-2.62384128-1.97907904-3.61672919-1.01891825-1.64899791-2.05276884-3.28765606-3.14167923-4.89136471-1.76184858-2.59632658-3.58286207-5.15613162-5.569024-7.58614446-4.46323513-5.4590554-10.14239643-9.96895468-16.02945203-13.81463267-11.2939934-7.37795499-23.68888569-12.02592656-37.43114793-12.41966541-8.44994272-.24237618-15.5583354 2.64466712-22.78437835 6.95602314-4.49885786 2.6842153-9.14297351 5.32354184-13.22537546 8.6294074"/>
    <path fill="rgb(130,176,138)" fill-rule="evenodd" d="M198.75373968 303.32842632c-8.80565654-9.06838685-17.64179827-18.02386012-27.47990689-26.00903437-5.7978205-4.70529792-11.90830936-8.98401774-17.89271245-13.44556007.6908006.60477655 1.36783782 1.227171 2.02878475 1.8646742-1.86792094-1.26806818-4.3132933-1.9846257-6.29381456-3.15846565-2.20890392-1.30907627-4.32041133-2.80663694-6.39167646-4.31619308-4.04286095-2.94587925-8.0249919-5.94775215-12.18062659-8.74002202-4.63021905-3.1106967-9.42864848-5.9850883-14.13754185-8.97852795-3.9964554-2.54051943-8.04179539-5.32127214-12.31718639-7.39797237-2.33017259-1.13201503-4.6658345-2.47387721-7.00559944-3.65450423-.78306363-.39501105-8.72879495-5.41228312-8.70876705-5.42737523.43922291-.33097836 4.43766092 1.54776682 5.05595997 1.80052302 1.80630337.73776754 3.53369248 1.6202537 5.27036263 2.50000873-.95322726-1.88018617-1.7077681-3.8555318-2.11847056-5.9348189-.12689427-.64181198-1.14346245-5.31402656-.62329345-5.7060022.25980633-.1957782 2.79480637 8.16347188 2.92463834 8.96718112.10552054.6528031.0899836 1.59291025.30371527 2.21105923.34498414.9983619.327584.69689229 1.08763106 1.2592919 1.39304149 1.03085357 3.24216584 1.67497139 4.74984332 2.53674562.81301527.45385695 3.3301656 2.2535936 4.84634737 2.76667078 4.58749949 2.22812938 9.23739891 5.65605414 13.59615353 8.5019993-1.14388906-2.14998654-2.01452525-4.39803962-2.64933584-6.75389312-.1510349-.5592551-1.78018862-5.5767676-1.38491582-5.87462717.44478622-.33517062 3.54896816 7.32790349 3.73281595 8.0533978.3415884 1.34747198.4124889 2.8473443.84012688 4.15853282.46949051 1.43907245 1.93416189 1.94919182 3.25447812 2.78804197 4.85730303 3.08621078 9.54780996 6.36546093 14.16025044 9.79518479 5.03266207-8.9505844-.77020739-19.75913718-5.66091256-27.2690769-3.52508382-5.412376-8.27091614-10.05276458-13.28178955-14.10382657-6.6874285-5.40664187-14.3387457-9.72589702-21.9806398-13.67671593-8.90435604-4.60351006-18.52838773-7.45582556-28.53376634-8.77353203-5.23298947-.68927601-10.58664135-.66997231-15.87248836-.44898975-2.58217535.10776673-5.06063105.4498253-7.53516574 1.29191866-1.11528788.38006686-2.19316712.85897042-3.24356821 1.3951737-.79808876.40745397-2.72872212.83755677-3.18755902 1.44461411-3.77733072 4.9163538-5.7097757 9.81547658-5.41467631 15.99343107.27905185 5.84818485 2.12606405 11.6994091 4.63263479 16.9159374 2.79147764 5.80874992 6.38175902 11.08077588 11.07717928 15.50552664 3.58239228 3.37598859 7.5875328 6.31405994 11.56627448 9.21362633 14.151096 10.31317161 32.09224347 19.28271174 50.42038747 16.97840787 5.93283781-.74561016 11.57574082-2.82049695 16.8490588-5.63991076 1.2425366-.6643636 2.47760941-1.33631698 3.65052364-2.12085257.79092683-.52865696 2.90504515-2.91162413 3.70032958-2.99812072 1.09027556-.11867547 3.4391483 2.09900462 4.46204051 2.77408129 7.773682 5.13157514 15.34376498 10.54104182 22.75518518 16.16938863 7.88508832 5.98838525 15.38361986 12.3840054 22.66128943 19.08032967 3.09533615 2.84828739 6.17099755 5.70287552 9.17665613 8.64687314.69956669.68470207 2.41055547 3.20701612 3.67938028 3.32123214.8023946.07225649 1.34329363-.6128371 1.22874552-1.35517272-.19901176-1.29080027-2.91480115-3.22218467-3.81637948-4.15065762"/>
    <path fill="rgb(73,115,81)" fill-rule="evenodd" d="M850.22912965 279.67154008c-3.41094971-.74515551-7.17716307-.68812482-10.6516275-.62665461-18.633543.25339385-36.93136534 9.07539309-48.84002588 23.1715361-10.13792606 12.00035045-12.92559399 26.92019424-14.92840148 42.00225108-.19857074 1.49748254-.28372234 2.98540306-.39574555 4.48595912-.02407975.32203558-.0600249.60923805-.09841291.87970696-.7876523.70417538-1.20084694 1.52514414-.73460704 2.42704868-1.73513832 3.7971513-3.20295646 7.69060592-4.46243237 11.70631796-3.70688642 11.82003784-7.47763655 23.86478344-5.1548126 36.29405934.54266696-6.83992656 1.68418697-13.83421163 3.04940441-20.56178431.07852094-.3862378.16332356-.7694021.251616-1.15120038.00907353-.04029714.0174491-.08059427.02652263-.1205499.48334002-2.06027645 1.11150755-4.05874119 1.87542907-6.02578782.00802659-.02151457.01570419-.04268764.02407976-.06386071.10085578-.25885788.20799325-.51634974.31373478-.77384161.2188117-.5330833.44355608-1.0651421.68191076-1.59446888.08061483-.1803126.15808883-.36233272.23242199-.54571884 1.11220552-2.72586218 1.58193524-5.79732354 2.57827875-8.61778154.23835468-.64133917.4875278-1.28028782.74856631-1.91582146.0153552-.03722363.0310594-.07444725.04676359-.11167088.70564153-1.71023776 1.48526723-3.39964396 2.30956263-5.0712921.44809285-.33672013.68749447-1.17203194 1.0738175-1.931189.07991688-.1495775.7045946-1.14710237.89060198-1.7218488.48543391-.93912817.96912291-1.87859784 1.45804665-2.8160185l-.04397173.01639206c.48927271-.90019704.97994135-1.79663756 1.4667712-2.68932157.10713746-.19602166.21532187-.39238482.3231573-.58908948.17483996-.31315656.34967992-.62597161.5241709-.93810366 1.63218865-2.92085935 3.3627902-5.783322 5.16004732-8.61026853.64142885-1.0087944 2.17380866-2.45539327 2.46765147-3.5881526.01081844-.04234613.01326132-.08127726.01989197-.1219159 3.89987345-5.47733696 8.38952642-10.529505 13.77362016-14.53258149-.65085136.70349237-2.03421587 3.09092692-2.39994896 3.56356452-1.11918516 1.44728187-2.33434036 2.79450391-3.55403233 4.15811801-2.18427811 2.44275773-4.3169069 4.96303623-6.21187896 7.62811121-3.4653909 4.87390443-6.45511939 10.00325172-9.28117533 15.23573236-.02687161.0307351-.0561861.0597627-.08166178.0911808-1.4203566 1.7508764-2.31444839 4.39716883-3.33696554 6.40007308 4.04644587-1.87415832 8.52074363-3.09502493 12.673629-4.75916004 4.14136897-1.6590126 8.17001677-3.50653382 12.05942076-5.67609064 5.16946983-2.88329422 10.5319267-6.13882469 15.41627826-9.8229391 5.59732172-3.4720422 10.30090064-8.25100932 14.45273906-13.26595372 4.91227013-5.9335825 9.41413747-11.91907318 12.19831558-19.12372296 1.36766031-3.54034243 2.4435717-7.23196988 3.08151074-10.96662647.02791856-.16289605.06351472-.33945214.10225172-.52283826.65259627-1.28984985 1.23609411-2.6087273 1.7257158-3.95799834.77753182-2.13984621 2.61387492-4.49381365-.83022809-5.24579918"/>
    <path fill="rgb(88,139,98)" fill-rule="evenodd" d="M149.24512891 317.70883955c-.88616815.28540431-1.9516178-.8394553-.80216478-1.11651903.93006727-.22239195.88445538-.27482416 1.30207308-1.02399048.33911588-.60834935.54803544-1.35032424.8456153-1.9887217.6312095-1.35408425 1.34720554-2.6454266 2.22608553-3.85545432 1.88357695-2.5939669 4.17854298-4.8291632 6.75251613-6.71274026 4.49206217-3.28684179 9.52876544-6.29097502 14.87159068-7.80023236 8.4951673-2.39978556 18.1638227-2.54827154 26.67227436-.88414635 5.2695024 1.03037647 10.08526608 2.8216698 13.584308 7.06458165 1.7488839 2.12027067 3.1216178 4.60439089 3.72172054 7.33969276.15662667.71502962.1273356 1.51005253.32336959 2.21003224.30135116 1.07625771.16839915.7897695 1.4271777.99917624 1.3745082.22850884 2.74779042.46191936 4.12077433.69923688 3.59479449.6218383 7.21063516 1.28201788 10.71337185 2.29125238 1.1528798.33184463 2.28040301.73758445 3.38178232 1.20917046.83304856.35618315 4.15013859 1.47486384 4.55312729 2.5570096.67101843 1.80066396-1.577062.98440574-2.2756111.59229959-.61189297-.34362496-1.24010654-.66407129-1.87748511-.9590718-1.60486414-.7427466-3.2769511-1.31716134-4.98674977-1.77439125-1.84768847-.49427265-3.73324487-.8632713-5.61147304-1.23272879-1.75164682-.34420422-3.50975308-.65749348-5.2701693-.9567972-.9779234-.16647127-1.95671113-.32812972-2.93549885-.48978818-.3343721-.05528-.92408463-.34474082-.87946222.08996295-2.05779048-.39664427-4.28316206-.3394143-6.37925602-.44889532-2.56737223-.13380555-5.14422417-.24362143-7.72017137-.16331629-1.85784037.05797469-3.71730814.17979702-5.5657201.4294404-1.08008676.14596717-2.14292934.35938753-3.20265098.6295466-.58207712.14858043-2.87747516.46338967-3.1945875.97087337.13626916-.21807533 2.66955736-.0066967 2.9919849-.01902194 1.289726-.0483464 2.5693459-.17605918 3.85429488-.31964943 2.38452312-.26635963 4.77006882-.40549992 7.16189365-.38516754-.0090836.4197221-1.64294622 1.1677435-2.04179963 1.44592938-.89427128.62418607-1.75077738 1.30503259-2.54982825 2.05169453-1.40771457 1.31504805-3.09318819 2.944276-4.06688297 4.50250685.28697181-.45924897 1.70253017-1.05683006 2.20491402-1.40760883.80479847-.5623313 1.59314287-1.16202368 2.3391792-1.80326724.68867432-.59207083 1.33131278-1.23148588 1.96319296-1.88455077.63194302-.65365537 1.48954268-2.01237748 2.31991192-2.4475789.05011526-.02630678.41206846.25969416.6176729.16240414.20719268-.09787196.46547649-.58764231.51809297-.607663.77293972-.29822032 2.24089383.07275228 3.05347404.11040021 2.10728924.0969543 4.21253794.22412118 6.31839853.34001997.65239546.03579446 1.20673205-.11248718 1.45317143.3686626.26251536.51323657-.2185749 1.8622549-.35542989 2.42129032-.50773225 2.07610887-1.40956818 3.93775592-2.82911867 5.54611513-2.65843568 3.0128453-5.93653803 5.02132026-9.63982845 6.36484367-14.18446717 5.1460107-29.27488817 7.206904-43.45505564 1.85383935-5.87054112-2.21644092-14.71163586-6.17668662-13.65302446-13.96868029"/>
    <g opacity=".6">
      <path fill="rgb(221,227,233)" fill-rule="evenodd" d="M886.30499055 587.18924168c12.20567052 76.08312952-283.80261512 125.70955127-538.5838084 91.076468C92.93998884 643.63262644-23.94154232 508.38653016 97.6357954 436.32209348s776.46352461 74.7840187 788.66919514 150.86714821z"/>
    </g>
    <g transform="translate(195.6081081 113.3882353)">
      <path fill="rgb(242,242,242)" fill-rule="evenodd" d="M8 0h143c4.4153202 0 8 3.5846798 8 8v286c0 4.4153202-3.5846798 8-8 8H8c-4.4153202 0-8-3.5846798-8-8V8c0-4.4153202 3.5846798-8 8-8z"/>
      <ellipse cx="79" cy="268" fill="rgb(255,255,255)" rx="15" ry="15"/>
      <g transform="translate(64 16)">
        <ellipse cx="2" cy="2" fill="rgb(255,255,255)" rx="2" ry="2"/>
        <path fill="rgb(255,255,255)" fill-rule="evenodd" d="M11 0h17c1.10383005 0 2 .89616995 2 2s-.89616995 2-2 2H11c-1.10383005 0-2-.89616995-2-2s.89616995-2 2-2z"/>
      </g>
      <g transform="translate(14 28)">
        <g>
          <path fill="rgb(255,255,255)" fill-rule="evenodd" d="M4 0h123c2.2076601 0 4 1.7923399 4 4v46c0 2.2076601-1.7923399 4-4 4H4c-2.2076601 0-4-1.7923399-4-4V4c0-2.2076601 1.7923399-4 4-4z"/>
          <g transform="translate(39 16.2)">
            <path fill="rgb(221,227,233)" fill-rule="evenodd" d="M3 0h67c1.65574507 0 3 1.34425493 3 3v2.1c0 1.65574507-1.34425493 3-3 3H3c-1.65574507 0-3-1.34425493-3-3V3c0-1.65574507 1.34425493-3 3-3z"/>
            <path fill="rgb(221,227,233)" fill-rule="evenodd" d="M3 13.5h43c1.65574507 0 3 1.34425493 3 3v2.1c0 1.65574507-1.34425493 3-3 3H3c-1.65574507 0-3-1.34425493-3-3v-2.1c0-1.65574507 1.34425493-3 3-3z"/>
          </g>
          <ellipse cx="21" cy="27" fill="rgb(197,207,214)" rx="12" ry="12"/>
        </g>
        <g transform="translate(0 62)">
          <path fill="rgb(255,255,255)" fill-rule="evenodd" d="M4 0h123c2.2076601 0 4 1.7923399 4 4v34c0 2.2076601-1.7923399 4-4 4H4c-2.2076601 0-4-1.7923399-4-4V4c0-2.2076601 1.7923399-4 4-4z"/>
          <g transform="translate(39 12.6)">
            <path fill="rgb(221,227,233)" fill-rule="evenodd" d="M3 0h67c1.65574507 0 3 1.34425493 3 3v.3c0 1.65574507-1.34425493 3-3 3H3c-1.65574507 0-3-1.34425493-3-3V3c0-1.65574507 1.34425493-3 3-3z"/>
            <path fill="rgb(221,227,233)" fill-rule="evenodd" d="M3 10.5h43c1.65574507 0 3 1.34425493 3 3v.3c0 1.65574507-1.34425493 3-3 3H3c-1.65574507 0-3-1.34425493-3-3v-.3c0-1.65574507 1.34425493-3 3-3z"/>
          </g>
          <ellipse cx="21" cy="21" fill="rgb(197,207,214)" rx="12" ry="12"/>
        </g>
        <g transform="translate(0 112)">
          <path fill="rgb(255,255,255)" fill-rule="evenodd" d="M4 0h123c2.2076601 0 4 1.7923399 4 4v34c0 2.2076601-1.7923399 4-4 4H4c-2.2076601 0-4-1.7923399-4-4V4c0-2.2076601 1.7923399-4 4-4z"/>
          <g transform="translate(39 12.6)">
            <path fill="rgb(221,227,233)" fill-rule="evenodd" d="M3 0h67c1.65574507 0 3 1.34425493 3 3v.3c0 1.65574507-1.34425493 3-3 3H3c-1.65574507 0-3-1.34425493-3-3V3c0-1.65574507 1.34425493-3 3-3z"/>
            <path fill="rgb(221,227,233)" fill-rule="evenodd" d="M3 10.5h43c1.65574507 0 3 1.34425493 3 3v.3c0 1.65574507-1.34425493 3-3 3H3c-1.65574507 0-3-1.34425493-3-3v-.3c0-1.65574507 1.34425493-3 3-3z"/>
          </g>
          <ellipse cx="21" cy="21" fill="rgb(175,185,197)" rx="12" ry="12"/>
        </g>
        <g transform="translate(0 162)">
          <path fill="rgb(255,255,255)" fill-rule="evenodd" d="M4 0h123c2.2076601 0 4 1.7923399 4 4v34c0 2.2076601-1.7923399 4-4 4H4c-2.2076601 0-4-1.7923399-4-4V4c0-2.2076601 1.7923399-4 4-4z"/>
          <g transform="translate(39 12.6)">
            <path fill="rgb(221,227,233)" fill-rule="evenodd" d="M3 0h67c1.65574507 0 3 1.34425493 3 3v.3c0 1.65574507-1.34425493 3-3 3H3c-1.65574507 0-3-1.34425493-3-3V3c0-1.65574507 1.34425493-3 3-3z"/>
            <path fill="rgb(221,227,233)" fill-rule="evenodd" d="M3 10.5h43c1.65574507 0 3 1.34425493 3 3v.3c0 1.65574507-1.34425493 3-3 3H3c-1.65574507 0-3-1.34425493-3-3v-.3c0-1.65574507 1.34425493-3 3-3z"/>
          </g>
          <ellipse cx="21" cy="21" fill="rgb(197,207,214)" rx="12" ry="12"/>
        </g>
      </g>
    </g>
    <g transform="translate(224.73243243 143.67058824)">
      <g transform="translate(0 218)">
        <path fill="rgb(73,115,81)" fill-rule="evenodd" d="M12.13986297 0C10.81503713 0 9.4942504.02660226 8.17108772.09544145 7.1624999.14817927 5.62122565-.06090518 4.76778692.5677483c-.88670195.6529222-.82564021 1.98956922-.68712273 2.93348283.73226564 4.9916579 2.51945 9.41790103 6.25823396 12.95436848 5.75667238 5.44552983 12.35609175 8.2123985 20.16534132 9.4445033 5.48557729.86550694 10.54966227-.33626194 14.58781506-4.23722707 2.95044606 5.4760991 5.188822 11.53604785 6.31193027 17.65223472.55406991 3.01795669.72323706 5.99951028.6258234 9.07253832-.0627249 1.96833408-.1713055 3.9320011-.38228924 5.89100105-.09147381.8512724-.5255586 2.13984866-.1922138 2.94421708.39108023.94461367 1.7099662 1.03608812 2.30205121.23055294.49277059-.67042369.40224716-1.98700233.50346233-2.78040315.16774158-1.31797876.32312825-2.63689094.43432239-3.96093689.18057167-2.14311561.31409967-4.2922984.3043583-6.44358138-.02257146-4.83344444-1.0972105-9.68579048-2.56720645-14.27398072-2.82000679-8.80231533-7.39559789-16.62524737-14.51178487-22.76313608-4.3755367-3.77425435-9.38331184-5.30271768-15.06490442-6.12318746C19.31829966.59738414 15.72326025 0 12.13986297 0"/>
        <path fill="rgb(73,115,81)" fill-rule="evenodd" d="M32.57126746 35C18.27236956 35 8.64204555 46.52416253 4.08868149 58.5015953c-1.71643912 4.51473526-2.11873685 9.47227893-2.7802567 14.2128533-.21238885 1.5212868-.13370897 3.83949225-.75120555 5.19475432-.22409717.49147866-.73785807.66819265-.4922176 1.33774988.1486956.4055097.44046684.65386448.87859202.7343751.89943283.16556986 2.1711901-.813976 2.9422998-1.2006089 6.39601882-3.2076886 10.59836757-8.16750657 14.02656247-14.23582384 2.12505934-3.76125595 4.2812628-7.6657935 5.54365342-11.795033.77110969-2.52243862 1.22000652-5.17906159 1.4836778-7.79588411.10373567-1.03049043.20419302-2.08554342.1981047-3.12240192-.00608833-1.02867098-.48472428-1.5724588-.8287146-2.46785513 4.77113874-1.80603057 10.15649573-2.29819152 14.98945437-.4266608 4.47000085 1.7309783 8.18317617 5.07603528 10.2623389 9.27850761.5402217 1.0923517.95680358 2.2447452 1.26028313 3.42010926.19857304.76985436.20817386 1.76873186.57628331 2.4646711.892642 1.68731152 2.77065588.55925314 2.59034782-1.01138621-.50275509-4.38146063-3.00927136-8.78020601-6.21290076-11.8264185C43.73444419 37.42077689 38.25752817 35 32.57126746 35"/>
      </g>
      <path fill="rgb(221,227,233)" fill-rule="evenodd" d="M56 0h143c4.4153202 0 8 3.5846798 8 8v286c0 4.4153202-3.5846798 8-8 8H56c-4.4153202 0-8-3.5846798-8-8V8c0-4.4153202 3.5846798-8 8-8z"/>
      <ellipse cx="127" cy="268" fill="rgb(255,255,255)" rx="15" ry="15"/>
      <g transform="translate(112 16)">
        <ellipse cx="2" cy="2" fill="rgb(255,255,255)" rx="2" ry="2"/>
        <path fill="rgb(255,255,255)" fill-rule="evenodd" d="M11 0h17c1.10383005 0 2 .89616995 2 2s-.89616995 2-2 2H11c-1.10383005 0-2-.89616995-2-2s.89616995-2 2-2z"/>
      </g>
      <g transform="translate(62 28)">
        <g>
          <path fill="rgb(255,255,255)" fill-rule="evenodd" d="M4 0h123c2.2076601 0 4 1.7923399 4 4v46c0 2.2076601-1.7923399 4-4 4H4c-2.2076601 0-4-1.7923399-4-4V4c0-2.2076601 1.7923399-4 4-4z"/>
          <g transform="translate(9 16.2)">
            <path fill="rgb(221,227,233)" fill-rule="evenodd" d="M3 0h67c1.65574507 0 3 1.34425493 3 3v2.1c0 1.65574507-1.34425493 3-3 3H3c-1.65574507 0-3-1.34425493-3-3V3c0-1.65574507 1.34425493-3 3-3z"/>
            <path fill="rgb(221,227,233)" fill-rule="evenodd" d="M3 13.5h43c1.65574507 0 3 1.34425493 3 3v2.1c0 1.65574507-1.34425493 3-3 3H3c-1.65574507 0-3-1.34425493-3-3v-2.1c0-1.65574507 1.34425493-3 3-3z"/>
          </g>
          <g transform="translate(110 20)">
            <ellipse cx="7" cy="7" fill="rgb(221,227,233)" rx="7" ry="7"/>
            <ellipse cx="7" cy="7" fill="rgb(242,242,242)" rx="3" ry="3"/>
          </g>
        </g>
        <g transform="translate(0 62)">
          <path fill="rgb(255,255,255)" fill-rule="evenodd" d="M4 0h123c2.2076601 0 4 1.7923399 4 4v34c0 2.2076601-1.7923399 4-4 4H4c-2.2076601 0-4-1.7923399-4-4V4c0-2.2076601 1.7923399-4 4-4z"/>
          <g transform="translate(39 12.6)">
            <path fill="rgb(221,227,233)" fill-rule="evenodd" d="M3 0h67c1.65574507 0 3 1.34425493 3 3v.3c0 1.65574507-1.34425493 3-3 3H3c-1.65574507 0-3-1.34425493-3-3V3c0-1.65574507 1.34425493-3 3-3z"/>
            <path fill="rgb(221,227,233)" fill-rule="evenodd" d="M3 10.5h43c1.65574507 0 3 1.34425493 3 3v.3c0 1.65574507-1.34425493 3-3 3H3c-1.65574507 0-3-1.34425493-3-3v-.3c0-1.65574507 1.34425493-3 3-3z"/>
          </g>
          <ellipse cx="21" cy="21" fill="rgb(197,207,214)" rx="12" ry="12"/>
        </g>
        <g transform="translate(0 112)">
          <path fill="rgb(255,255,255)" fill-rule="evenodd" d="M4 0h123c2.2076601 0 4 1.7923399 4 4v34c0 2.2076601-1.7923399 4-4 4H4c-2.2076601 0-4-1.7923399-4-4V4c0-2.2076601 1.7923399-4 4-4z"/>
          <g transform="translate(9 12.6)">
            <path fill="rgb(221,227,233)" fill-rule="evenodd" d="M3 0h67c1.65574507 0 3 1.34425493 3 3v.3c0 1.65574507-1.34425493 3-3 3H3c-1.65574507 0-3-1.34425493-3-3V3c0-1.65574507 1.34425493-3 3-3z"/>
            <path fill="rgb(175,185,197)" fill-rule="evenodd" d="M3 10.5h43c1.65574507 0 3 1.34425493 3 3v.3c0 1.65574507-1.34425493 3-3 3H3c-1.65574507 0-3-1.34425493-3-3v-.3c0-1.65574507 1.34425493-3 3-3z"/>
          </g>
          <g transform="translate(110 14)">
            <ellipse cx="7" cy="7" fill="rgb(221,227,233)" rx="7" ry="7"/>
            <ellipse cx="7" cy="7" fill="rgb(242,242,242)" rx="3" ry="3"/>
          </g>
        </g>
        <g transform="translate(0 162)">
          <path fill="rgb(255,255,255)" fill-rule="evenodd" d="M4 0h123c2.2076601 0 4 1.7923399 4 4v34c0 2.2076601-1.7923399 4-4 4H4c-2.2076601 0-4-1.7923399-4-4V4c0-2.2076601 1.7923399-4 4-4z"/>
          <g transform="translate(39 12.6)">
            <path fill="rgb(221,227,233)" fill-rule="evenodd" d="M3 0h67c1.65574507 0 3 1.34425493 3 3v.3c0 1.65574507-1.34425493 3-3 3H3c-1.65574507 0-3-1.34425493-3-3V3c0-1.65574507 1.34425493-3 3-3z"/>
            <path fill="rgb(221,227,233)" fill-rule="evenodd" d="M3 10.5h43c1.65574507 0 3 1.34425493 3 3v.3c0 1.65574507-1.34425493 3-3 3H3c-1.65574507 0-3-1.34425493-3-3v-.3c0-1.65574507 1.34425493-3 3-3z"/>
          </g>
          <ellipse cx="21" cy="21" fill="rgb(197,207,214)" rx="12" ry="12"/>
        </g>
      </g>
    </g>
    <g transform="translate(385.87837838 176.4117647)">
      <path fill="rgb(242,242,242)" fill-rule="evenodd" d="M8 0h319c4.4153202 0 8 3.5846798 8 8v330c0 4.4153202-3.5846798 8-8 8H8c-4.4153202 0-8-3.5846798-8-8V8c0-4.4153202 3.5846798-8 8-8z"/>
      <path fill="rgb(255,255,255)" fill-rule="evenodd" d="M257 43h54c4.4153202 0 8 3.5846798 8 8v65c0 4.4153202-3.5846798 8-8 8h-54c-4.4153202 0-8-3.5846798-8-8V51c0-4.4153202 3.5846798-8 8-8z"/>
      <g transform="translate(259 58)">
        <ellipse cx="25" cy="16" fill="rgb(221,227,233)" rx="16" ry="16"/>
        <path fill="rgb(221,227,233)" fill-rule="evenodd" d="M3 36h44c1.65574507 0 3 1.34425493 3 3s-1.34425493 3-3 3H3c-1.65574507 0-3-1.34425493-3-3s1.34425493-3 3-3z"/>
        <path fill="rgb(221,227,233)" fill-rule="evenodd" d="M11 46h28c1.65574507 0 3 1.34425493 3 3s-1.34425493 3-3 3H11c-1.65574507 0-3-1.34425493-3-3s1.34425493-3 3-3z"/>
      </g>
      <path fill="rgb(197,207,214)" fill-rule="evenodd" d="M8 0h319c4.4153202 0 8 3.5846798 8 8v19H0V8c0-4.4153202 3.5846798-8 8-8z"/>
      <g transform="translate(9 10)">
        <ellipse cx="4" cy="4" fill="rgb(242,242,242)" rx="4" ry="4"/>
        <ellipse cx="16" cy="4" fill="rgb(242,242,242)" rx="4" ry="4"/>
        <ellipse cx="28" cy="4" fill="rgb(242,242,242)" rx="4" ry="4"/>
      </g>
      <g transform="translate(249 132)">
        <path fill="rgb(255,255,255)" fill-rule="evenodd" d="M8 0h54c4.4153202 0 8 3.5846798 8 8v178c0 4.4153202-3.5846798 8-8 8H8c-4.4153202 0-8-3.5846798-8-8V8c0-4.4153202 3.5846798-8 8-8z"/>
        <g transform="translate(18 18)">
          <path fill="rgb(221,227,233)" fill-rule="evenodd" d="M4 0h26c2.2076601 0 4 1.7923399 4 4v18c0 2.2076601-1.7923399 4-4 4H4c-2.2076601 0-4-1.7923399-4-4V4c0-2.2076601 1.7923399-4 4-4z"/>
          <path fill="rgb(175,185,197)" fill-rule="evenodd" d="M4 34h26c2.2076601 0 4 1.7923399 4 4v17c0 2.2076601-1.7923399 4-4 4H4c-2.2076601 0-4-1.7923399-4-4V38c0-2.2076601 1.7923399-4 4-4z"/>
          <path fill="rgb(221,227,233)" fill-rule="evenodd" d="M4 67h26c2.2076601 0 4 1.7923399 4 4v17c0 2.2076601-1.7923399 4-4 4H4c-2.2076601 0-4-1.7923399-4-4V71c0-2.2076601 1.7923399-4 4-4z"/>
          <path fill="rgb(221,227,233)" fill-rule="evenodd" d="M4 133h26c2.2076601 0 4 1.7923399 4 4v17c0 2.2076601-1.7923399 4-4 4H4c-2.2076601 0-4-1.7923399-4-4v-17c0-2.2076601 1.7923399-4 4-4z"/>
          <path fill="rgb(197,207,214)" fill-rule="evenodd" d="M4 100h26c2.2076601 0 4 1.7923399 4 4v17c0 2.2076601-1.7923399 4-4 4H4c-2.2076601 0-4-1.7923399-4-4v-17c0-2.2076601 1.7923399-4 4-4z"/>
        </g>
      </g>
      <g transform="translate(16 44)">
        <g>
          <path fill="rgb(255,255,255)" fill-rule="evenodd" d="M4 0h217c2.2076601 0 4 1.7923399 4 4v39c0 2.2076601-1.7923399 4-4 4H4c-2.2076601 0-4-1.7923399-4-4V4c0-2.2076601 1.7923399-4 4-4z"/>
          <g transform="translate(9 14.1)">
            <path fill="rgb(221,227,233)" fill-rule="evenodd" d="M3 0h161c1.65574507 0 3 1.34425493 3 3v1.05c0 1.65574507-1.34425493 3-3 3H3c-1.65574507 0-3-1.34425493-3-3V3c0-1.65574507 1.34425493-3 3-3z"/>
            <path fill="rgb(221,227,233)" fill-rule="evenodd" d="M3 11.75h106.09589041c1.65574507 0 3 1.34425493 3 3v1.05c0 1.65574507-1.34425493 3-3 3H3c-1.65574507 0-3-1.34425493-3-3v-1.05c0-1.65574507 1.34425493-3 3-3z"/>
          </g>
          <g transform="translate(193.95419847 16.5)">
            <ellipse cx="7" cy="7" fill="rgb(221,227,233)" rx="7" ry="7"/>
            <ellipse cx="7" cy="7" fill="rgb(242,242,242)" rx="3" ry="3"/>
          </g>
        </g>
        <g transform="translate(0 55)">
          <path fill="rgb(255,255,255)" fill-rule="evenodd" d="M4 0h217c2.2076601 0 4 1.7923399 4 4v31c0 2.2076601-1.7923399 4-4 4H4c-2.2076601 0-4-1.7923399-4-4V4c0-2.2076601 1.7923399-4 4-4z"/>
          <g transform="translate(9 11.7)">
            <path fill="rgb(221,227,233)" fill-rule="evenodd" d="M2.925 0h161.15C165.68935145 0 167 1.31064855 167 2.925c2e-8 1.6143514-1.31064851 2.92499998-2.92499996 2.925H2.925C1.31064855 5.85 0 4.53935145 0 2.925-2e-8 1.3106486 1.31064851 2e-8 2.92499996 0z"/>
            <path fill="rgb(221,227,233)" fill-rule="evenodd" d="M2.925 9.75h106.24589041c1.61435145 0 2.925 1.31064855 2.925 2.925 3e-8 1.6143514-1.3106485 2.92499998-2.92499996 2.925H2.925C1.31064855 15.6 0 14.28935145 0 12.675c-2e-8-1.6143514 1.31064851-2.92499998 2.92499996-2.925z"/>
          </g>
          <g transform="translate(193.95419847 12.5)">
            <ellipse cx="7" cy="7" fill="rgb(221,227,233)" rx="7" ry="7"/>
            <ellipse cx="7" cy="7" fill="rgb(242,242,242)" rx="3" ry="3"/>
          </g>
        </g>
        <g transform="translate(0 102)">
          <path fill="rgb(255,255,255)" fill-rule="evenodd" d="M4 0h217c2.2076601 0 4 1.7923399 4 4v31c0 2.2076601-1.7923399 4-4 4H4c-2.2076601 0-4-1.7923399-4-4V4c0-2.2076601 1.7923399-4 4-4z"/>
          <g transform="translate(9 11.7)">
            <path fill="rgb(221,227,233)" fill-rule="evenodd" d="M2.925 0h161.15C165.68935145 0 167 1.31064855 167 2.925c2e-8 1.6143514-1.31064851 2.92499998-2.92499996 2.925H2.925C1.31064855 5.85 0 4.53935145 0 2.925-2e-8 1.3106486 1.31064851 2e-8 2.92499996 0z"/>
            <path fill="rgb(221,227,233)" fill-rule="evenodd" d="M2.925 9.75h106.24589041c1.61435145 0 2.925 1.31064855 2.925 2.925 3e-8 1.6143514-1.3106485 2.92499998-2.92499996 2.925H2.925C1.31064855 15.6 0 14.28935145 0 12.675c-2e-8-1.6143514 1.31064851-2.92499998 2.92499996-2.925z"/>
          </g>
          <g transform="translate(193.95419847 12.5)">
            <ellipse cx="7" cy="7" fill="rgb(221,227,233)" rx="7" ry="7"/>
            <ellipse cx="7" cy="7" fill="rgb(175,185,197)" rx="3" ry="3"/>
          </g>
        </g>
        <g transform="translate(0 243)">
          <path fill="rgb(255,255,255)" fill-rule="evenodd" d="M4 0h217c2.2076601 0 4 1.7923399 4 4v31c0 2.2076601-1.7923399 4-4 4H4c-2.2076601 0-4-1.7923399-4-4V4c0-2.2076601 1.7923399-4 4-4z"/>
          <g transform="translate(9 11.7)">
            <path fill="rgb(221,227,233)" fill-rule="evenodd" d="M2.925 0h161.15C165.68935145 0 167 1.31064855 167 2.925c2e-8 1.6143514-1.31064851 2.92499998-2.92499996 2.925H2.925C1.31064855 5.85 0 4.53935145 0 2.925-2e-8 1.3106486 1.31064851 2e-8 2.92499996 0z"/>
            <path fill="rgb(221,227,233)" fill-rule="evenodd" d="M2.925 9.75h106.24589041c1.61435145 0 2.925 1.31064855 2.925 2.925 3e-8 1.6143514-1.3106485 2.92499998-2.92499996 2.925H2.925C1.31064855 15.6 0 14.28935145 0 12.675c-2e-8-1.6143514 1.31064851-2.92499998 2.92499996-2.925z"/>
          </g>
          <g transform="translate(193.95419847 12.5)">
            <ellipse cx="7" cy="7" fill="rgb(221,227,233)" rx="7" ry="7"/>
            <ellipse cx="7" cy="7" fill="rgb(242,242,242)" rx="3" ry="3"/>
          </g>
        </g>
        <g transform="translate(0 196)">
          <path fill="rgb(255,255,255)" fill-rule="evenodd" d="M4 0h217c2.2076601 0 4 1.7923399 4 4v31c0 2.2076601-1.7923399 4-4 4H4c-2.2076601 0-4-1.7923399-4-4V4c0-2.2076601 1.7923399-4 4-4z"/>
          <g transform="translate(9 11.7)">
            <path fill="rgb(221,227,233)" fill-rule="evenodd" d="M2.925 0h161.15C165.68935145 0 167 1.31064855 167 2.925c2e-8 1.6143514-1.31064851 2.92499998-2.92499996 2.925H2.925C1.31064855 5.85 0 4.53935145 0 2.925-2e-8 1.3106486 1.31064851 2e-8 2.92499996 0z"/>
            <path fill="rgb(221,227,233)" fill-rule="evenodd" d="M2.925 9.75h106.24589041c1.61435145 0 2.925 1.31064855 2.925 2.925 3e-8 1.6143514-1.3106485 2.92499998-2.92499996 2.925H2.925C1.31064855 15.6 0 14.28935145 0 12.675c-2e-8-1.6143514 1.31064851-2.92499998 2.92499996-2.925z"/>
          </g>
          <g transform="translate(193.95419847 12.5)">
            <ellipse cx="7" cy="7" fill="rgb(221,227,233)" rx="7" ry="7"/>
            <ellipse cx="7" cy="7" fill="rgb(242,242,242)" rx="3" ry="3"/>
          </g>
        </g>
        <g transform="translate(0 149)">
          <path fill="rgb(255,255,255)" fill-rule="evenodd" d="M4 0h217c2.2076601 0 4 1.7923399 4 4v31c0 2.2076601-1.7923399 4-4 4H4c-2.2076601 0-4-1.7923399-4-4V4c0-2.2076601 1.7923399-4 4-4z"/>
          <g transform="translate(9 11.7)">
            <path fill="rgb(221,227,233)" fill-rule="evenodd" d="M2.925 0h161.15C165.68935145 0 167 1.31064855 167 2.925c2e-8 1.6143514-1.31064851 2.92499998-2.92499996 2.925H2.925C1.31064855 5.85 0 4.53935145 0 2.925-2e-8 1.3106486 1.31064851 2e-8 2.92499996 0z"/>
            <path fill="rgb(221,227,233)" fill-rule="evenodd" d="M2.925 9.75h106.24589041c1.61435145 0 2.925 1.31064855 2.925 2.925 3e-8 1.6143514-1.3106485 2.92499998-2.92499996 2.925H2.925C1.31064855 15.6 0 14.28935145 0 12.675c-2e-8-1.6143514 1.31064851-2.92499998 2.92499996-2.925z"/>
          </g>
          <g transform="translate(193.95419847 12.5)">
            <ellipse cx="7" cy="7" fill="rgb(221,227,233)" rx="7" ry="7"/>
            <ellipse cx="7" cy="7" fill="rgb(242,242,242)" rx="3" ry="3"/>
          </g>
        </g>
      </g>
    </g>
    <path fill="rgb(130,176,138)" fill-rule="evenodd" d="M853.52609206 363.91671937c-3.9443174-2.67464592-9.18949887-3.3755429-13.90960833-3.3755429-18.43586207 0-35.76471577 6.84004857-50.7348071 17.03186862-8.20286565 5.58448491-15.54095023 12.69610405-22.01942323 20.10054397-3.73938422 4.27417495-7.07370233 8.89807804-9.43431093 14.04063049-1.59294001 3.47098878-2.68628618 7.08748753-3.42736885 10.817801-.90318295 4.54610568-1.62063368 9.1844157-1.94520352 13.80615775-.12776014 1.819955-1.18528916 11.47727807 1.84070607 11.64079668-.0173547.23807447-.02141644.46498356-.002954.6684814-6.57041599 10.27357935-10.62993906 22.31380807-14.3944322 33.72913636-3.27523828 9.93357588-6.19378206 19.95107211-8.08839847 30.22753285-2.49427673 13.52954476-4.13263436 27.26258736-4.91174967 40.98662563-.16726978 2.94945804-.2821062 5.90035678-.38106492 8.85377673-.08381952 2.51905112-.16874678 5.03810223-.25145855 7.55715335-.09231224 2.82303726-.58932134 6.0732399-.1403146 8.8797092.3906654 2.4441351 2.5060927 2.07423726 2.59951268-.35801213.11299018-2.93721215.09452773-5.88018708.22302637-8.81956028.17096227-3.90103555.34709402-7.8020711.53799573-11.70202612 1.32892701-27.09186528 6.31452647-53.78537904 15.51547205-79.37640274 3.72350652-10.35605901 7.99017825-20.15961238 13.47389456-29.73949822 4.82128367-8.42300963 10.62070783-16.57733008 16.54863064-24.17194143 5.76176077-7.38030832 11.75208665-14.58989456 18.81175751-20.84286087 5.72889762-5.07411955 12.03050037-9.4945248 18.50823487-13.60770234 8.22760533-5.22395158 16.43933295-10.3211222 25.35152585-14.33129022 4.63259745-2.0843221 9.3527069-3.95037927 14.02149076-5.95042086.84004138-.35981299 1.7406396-.70882079 2.54855632-1.12554114 2.69514816-1.38990824 1.8078429-3.48323467-.33970904-4.93941478"/>
    <path fill="rgb(88,139,98)" fill-rule="evenodd" d="M778.2988808 461.50588235c7.4772897 0 14.1309103.97158608 21.02041083 3.9431165 5.94702297 2.56460649 11.36670317 5.95971851 16.62866689 9.65602902 7.401558 5.19856344 13.23150949 11.24904945 17.31233657 19.26582444 2.43800497 4.78925985 4.2263848 11.56622573 2.58912099 16.7899457-1.92872665 6.15247196-7.2243875 11.28372467-14.19899935 10.1996141-4.3128857-.66970768-8.2665669-3.52463417-11.54456845-6.2116238-3.92137364-3.2145969-7.06041795-7.07986412-9.65231809-11.3727924-4.22812176-7.00269475-6.71267742-14.91918356-10.30437498-22.23667493-1.70431069-3.4729613-3.35130151-6.97073917-5.39258353-10.27134422-1.01056662-1.6344947-2.08644314-3.25335156-3.61948901-4.46800413-.82019518-.64965046-4.27849378-1.77421545-2.95596813-3.23329433-19.39044227.2546249-36.5683377 15.14661222-40.29065507 33.5798914-.34669834 1.71812318-.61766498 3.45018444-.90391692 5.17884616-.18064443 1.09158954-.10769187 5.11697469-1.08351917 5.81421858-2.15210043 1.53828797-1.24748872-3.13470791-1.15508215-3.80747518.23865908-1.73886032.49329824-3.47636083.76044356-5.21080175 1.45349285-9.43403963 5.65347577-18.20415078 12.65761603-24.9321634 8.00949598-7.69347955 18.81620143-12.68331176 30.13287999-12.68331176"/>
    <g transform="translate(65 445)">
      <path fill="rgb(221,227,233)" fill-rule="evenodd" d="M9.93785602 35.73637014C28.6043474 67.0518486 50.34487618 97.37384142 63.400835 131.61271883c-.52612256-4.03572125-1.08398697-8.06726216-1.70840151-12.09306614-3.31277073-21.3407633-7.43000587-42.52580401-11.75651924-63.68487392-2.20331776-10.77317076-4.5335906-21.50729952-6.92362955-32.24051043-1.28543717-5.76481124-2.55511365-11.53313497-3.86703774-17.29245663C38.82747028 4.90590411 38.55443507 2.46942931 38.15659418 0 50.8449133 41.636678 63.08073114 83.30475173 72.03079752 125.94239046c1.1741295 5.59573505 2.17398891 11.18152791 2.99301062 16.75760209.280177-1.27203772.55575643-2.544291.85739003-3.81284271 3.62136311-15.20730369 9.05352468-30.29356981 15.52146422-44.5126941 3.09205864-6.79992654 6.643724-13.45093818 10.8254887-19.6483264 2.60767026-3.86310576 8.75736777-8.45524615 11.13620942-12.41162942-13.0097825 23.86147736-17.70737328 53.71713355-25.2192268 79.65883386-1.83349784 6.3305167-3.67838549 12.65075651-5.48604966 18.98213015C93.9872772 138.23725528 111.5632158 119.57148616 136 111.48256648c-29.57978513 19.54437603-47.32203013 53.77146443-59.27786638 88.77719015-.03939565.41514803-.08623476.83030135-.12672468 1.24610664 3.51815539-6.67702853 7.94980137-12.71638063 13.95608442-16.94625578 12.85509904-9.0551289 27.11560438-6.4172157 39.58551316 1.35024614-9.7867795-6.22115035-27.47434291-.55619494-35.70900278 5.7668401-5.8951238 4.52631036-10.93317467 10.5986995-15.30818275 16.52290686-1.04830403 1.42007543-2.47850167 3.07697749-3.9894213 4.84488365C73.01202837 226.7952821 69.55991174 240.45183792 64.67246059 254c.80655734-3.88874046.22339992-10.10812302.4470694-13.00668192.02434591-.31381916.04409426-.62785387.06822173-.94079755-.74292287 2.96632788-1.460688 5.89893808-2.1517704 8.78426207 1.37377332-5.50585805 2.12041061-11.25351444 2.70325887-17.060576.15011472-2.49564104.2965077-4.99127943.45121997-7.48670492-.04903414-4.73609697-.24410183-9.49090941-.57403172-14.25328494-1.1698723-4.62851067-2.47971137-8.99432608-3.55992866-12.62503696-3.89799381-13.10075112-9.61232562-25.6516039-16.64565423-37.36033682-6.41714371-10.68482933-14.09846192-20.36323667-22.96606207-29.11624444-4.78043802-4.717194-9.78339885-9.20992922-14.71590028-13.76508103C5.94526254 115.5227797 2.75721952 111.47385298 0 109.36323233c20.08048745 11.07053413 40.74885325 23.0472616 55.39760852 40.88437403-1.71739858-6.59496276-3.58273902-13.0965988-5.55593753-19.46795442C39.83114732 98.4544622 27.19133569 64.9525261 9.93785602 35.73637014z"/>
      <path fill="rgb(197,207,214)" fill-rule="evenodd" d="M30 213c0 35.89850874 2.84281174 65 41 65s41-29.10149126 41-65"/>
    </g>
    <g transform="translate(665.94054054 65.25882353)">
      <path fill="rgb(221,227,233)" fill-rule="evenodd" d="M3 32c1.65574507 0 3 1.34425493 3 3v19c0 1.65574507-1.34425493 3-3 3s-3-1.34425493-3-3V35c0-1.65574507 1.34425493-3 3-3z"/>
      <path fill="rgb(221,227,233)" fill-rule="evenodd" d="M17 16c1.65574507 0 3 1.34425493 3 3v35c0 1.65574507-1.34425493 3-3 3s-3-1.34425493-3-3V19c0-1.65574507 1.34425493-3 3-3z"/>
      <path fill="rgb(221,227,233)" fill-rule="evenodd" d="M31 8c1.65574507 0 3 1.34425493 3 3v43c0 1.65574507-1.34425493 3-3 3s-3-1.34425493-3-3V11c0-1.65574507 1.34425493-3 3-3z"/>
      <path fill="rgb(221,227,233)" fill-rule="evenodd" d="M45 16c1.65574507 0 3 1.34425493 3 3v35c0 1.65574507-1.34425493 3-3 3s-3-1.34425493-3-3V19c0-1.65574507 1.34425493-3 3-3z"/>
      <path fill="rgb(197,207,214)" fill-rule="evenodd" d="M59 0c1.65574507 0 3 1.34425493 3 3v51c0 1.65574507-1.34425493 3-3 3s-3-1.34425493-3-3V3c0-1.65574507 1.34425493-3 3-3z"/>
    </g>
    <g transform="matrix(-1 0 0 1 80.71351351 396.96470588)">
      <path fill="rgb(242,242,242)" fill-rule="evenodd" d="M40 20.256388C40 9.11740024 30.998 0 20 0v20.256388L33.668 35C37.556 31.39537576 40 26.10744567 40 20.256388z"/>
      <path fill="rgb(175,185,197)" fill-rule="evenodd" d="M20.52921991 20H.332c0 5.221 2.12979684 10.113 5.4966734 13.668C9.53183367 37.556 14.80532779 40 20.5292199 40 25.80170417 40 30.62782987 37.891 34.332 34.557L20.52921991 20z"/>
      <path fill="rgb(197,207,214)" fill-rule="evenodd" d="M20 0C9.00199986 0 0 9.00199986 0 20h20V0zm2 18l8-18c4.22299957 1.77999997 8.22000122 5.33400011 10 10l-18 8z"/>
    </g>
    <g transform="translate(818.72432432 389.29411765)">
      <path fill="rgb(242,242,242)" fill-rule="evenodd" d="M37.76647278 37.179c-1.92157884 2.04-4.64369013 3.321-7.67126776 3.321-5.81740313 0-10.53332175-4.701-10.53332175-10.5s4.71591862-10.5 10.53332175-10.5V0C13.54585178 0 0 13.503 0 30s13.54585178 30 30.09520502 30C38.788205 60 46.64455827 56.334 52 50.502L37.76647278 37.179z"/>
      <path fill="rgb(175,185,197)" fill-rule="evenodd" d="M30 0v19.5c5.799 0 10.5 4.701 10.5 10.5H60C60 13.503 46.497 0 30 0z"/>
      <path fill="rgb(197,207,214)" fill-rule="evenodd" d="M40.09696351 30c0 3.4069834-1.60449094 6.43541309-4.09696351 8.39076512L48.26180148 54C55.39933657 48.41175348 60 39.74928449 60 30H40.09696351z"/>
    </g>
    <g transform="translate(586.66486486 77.16470588)">
      <path fill="rgb(242,242,242)" fill-rule="evenodd" d="M29.05113291 28.5039c-1.47813757 1.564-3.57206933 2.5461-5.9009752 2.5461-4.47492548 0-8.1025552-3.6041-8.1025552-8.05 0-4.4459 3.62762972-8.05 8.1025552-8.05V0C10.41988599 0 0 10.3523 0 23s10.41988599 23 23.15015771 23C29.83708077 46 35.88042944 43.1894 40 38.7182L29.05113291 28.5039z"/>
      <path fill="rgb(175,185,197)" fill-rule="evenodd" d="M23 0v14.95c4.4459 0 8.05 3.6041 8.05 8.05H46C46 10.3523 35.6477 0 23 0z"/>
      <path fill="rgb(197,207,214)" fill-rule="evenodd" d="M31.07272263 23c0 2.55523755-1.2033682 4.82655982-3.07272263 6.29307384L37.19635111 41C42.54950242 36.80881511 46 30.31196337 46 23H31.07272263z"/>
    </g>
    <g transform="translate(108.71081081 71.57647059)">
      <path fill="rgb(197,207,214)" fill-rule="evenodd" d="M48.007 51.98629782c-.004.01-.008.02-.014.032.006-.01.014-.05.014-.032"/>
      <path fill="rgb(197,207,214)" fill-rule="evenodd" d="M47.9976864 52.0014952c0 .002-.002.006-.002.01 0-.01.018-.04.002-.01"/>
      <path fill="rgb(197,207,214)" fill-rule="evenodd" d="M48.06714307 51.8323017c-.014.04-.032.078-.048.118.008-.02.016-.036.024-.056-.208.52-.076.182.024-.062"/>
      <path fill="rgb(197,207,214)" fill-rule="evenodd" d="M48.02237513 51.95275c-.008.018-.016.038-.024.056-.058.112.024-.056.024-.056"/>
      <path fill="rgb(197,207,214)" fill-rule="evenodd" d="M48 52.001v-.002.002z"/>
      <path fill="rgb(197,207,214)" fill-rule="evenodd" d="M47.999 52.002c0-.002 0-.002.002-.004-.002.002-.002.002-.002.004"/>
      <path fill="rgb(197,207,214)" fill-rule="evenodd" d="M47.98951173 52.0163509c-.012.024.056-.092 0 0"/>
      <path fill="rgb(197,207,214)" fill-rule="evenodd" d="M47.998 52.002l.004-.004c-.002.002-.002.004-.004.004"/>
      <path fill="rgb(221,227,233)" fill-rule="evenodd" d="M4 0h87c2.2076601 0 4 1.7923399 4 4v55c0 2.2076601-1.7923399 4-4 4H4c-2.2076601 0-4-1.7923399-4-4V4c0-2.2076601 1.7923399-4 4-4z"/>
      <g transform="translate(8 18)">
        <path fill="rgb(175,185,197)" fill-rule="evenodd" d="M28 0L0 45h56L28 0z"/>
        <path fill="rgb(197,207,214)" fill-rule="evenodd" d="M55.5 12L31 45h49L55.5 12z"/>
      </g>
      <ellipse cx="74" cy="21" fill="rgb(255,255,255)" rx="9" ry="9"/>
    </g>
    <g transform="matrix(-1 0 0 1 831.18378378 542.34117647)">
      <path fill="rgb(197,207,214)" fill-rule="evenodd" d="M71.007 76.98629782c-.004.01-.008.02-.014.032.006-.01.014-.05.014-.032"/>
      <path fill="rgb(197,207,214)" fill-rule="evenodd" d="M70.9976864 77.0014952c0 .002-.002.006-.002.01 0-.01.018-.04.002-.01"/>
      <path fill="rgb(197,207,214)" fill-rule="evenodd" d="M71.06714307 76.8323017c-.014.04-.032.078-.048.118.008-.02.016-.036.024-.056-.208.52-.076.182.024-.062"/>
      <path fill="rgb(197,207,214)" fill-rule="evenodd" d="M71.02237513 76.95275c-.008.018-.016.038-.024.056-.058.112.024-.056.024-.056"/>
      <path fill="rgb(197,207,214)" fill-rule="evenodd" d="M71 77.001v-.002.002z"/>
      <path fill="rgb(197,207,214)" fill-rule="evenodd" d="M70.999 77.002c0-.002 0-.002.002-.004-.002.002-.002.002-.002.004"/>
      <path fill="rgb(197,207,214)" fill-rule="evenodd" d="M70.98951173 77.0163509c-.012.024.056-.092 0 0"/>
      <path fill="rgb(197,207,214)" fill-rule="evenodd" d="M70.998 77.002l.004-.004c-.002.002-.002.004-.004.004"/>
      <path fill="rgb(221,227,233)" fill-rule="evenodd" d="M4 0h134c2.2076601 0 4 1.7923399 4 4v86c0 2.2076601-1.7923399 4-4 4H4c-2.2076601 0-4-1.7923399-4-4V4c0-2.2076601 1.7923399-4 4-4z"/>
      <g transform="translate(11 27)">
        <path fill="rgb(175,185,197)" fill-rule="evenodd" d="M41.72579365 0l-41.055 67h82.11l-41.055-67z"/>
        <path fill="rgb(197,207,214)" fill-rule="evenodd" d="M84.05579365 17.94642857L47.76079365 67h72.59l-36.295-49.05357143z"/>
      </g>
      <ellipse cx="110.5" cy="31.5" fill="rgb(255,255,255)" rx="13.5" ry="13.5"/>
    </g>
  </g>
  <ellipse cx="116.5" cy="57.254" fill="rgb(197,207,214)" rx="77.332" ry="71.935" transform="translate(388 674)"/>
  <g transform="translate(342 634)">
    <path fill="rgb(228,228,228)" fill-rule="evenodd" d="M131.53811388 79.6612966c-.03762743-1.17028594-1.06806564-2.0580875-2.23104646-1.92221768 0 0-4.32648458.50545863-6.69226956 1.81683348-2.36578498 1.31137486-6.46760654 4.61548882-6.46760654 4.61548882l27.34412237 49.33014688s7.42281173-1.60083636 5.63326331-6.02466327c-1.78954842-4.4238269-2.90002077-7.39046935-2.90002077-7.39046935l-2.48778928-28.59404249c-.04883227-.56126614-.5514545-.97142254-1.1111113-.90670365l-4.39203055.5078958s-3.9153037-2.8433177-5.24442492-5.24111798c-1.3291212-2.3978003-1.4510863-6.19115056-1.4510863-6.19115056z"/>
    <path fill="rgb(195,144,114)" fill-rule="evenodd" d="M237.16020203 79.73654747c-17.70404053-6.61869812-61.87182618-32.33219147-84.90419007-44.47846985-26.38005066-13.91171265-30.57699585-27.07510757-17.37748718-47.21369171l50.93821716 19.55334854c7.69657898 4.82032395 46.20339966 33.75770188 66.12071228 48.93252945 3.9331131 2.99658966 5.74097443 6.33296204 6.07675934 9.56208038 15.34887696 31.37610627 13.74554444 56.82650757 17.21743775 65.38285828L264.1062851 136.591856l-26.85477448-55.97343445c-.06774902-.27266693-.0971222-.56755828-.0913086-.88187408z"/>
    <path fill="rgb(212,161,129)" fill-rule="evenodd" d="M256.00756836 51.51842117c.29193115-.06349563.55532837-.13441848.78900146-.21304321 9.78460694-3.29227447 16.06341553-21.44760513-.58996582-26.31847382C232.17404175 17.95771408 185.85458374 4.741951 176.9417572 3h-54.56221008c-5.10578156 23.53127289 3.52973938 34.31630707 33.14315796 37.85024261 7.69487.91827012 17.5680542 2.28754044 28.13964844 3.75366211 8.56217956 1.18745041 17.582489 2.4384346 26.27464294 3.56480408l-52.00944519 31.62775421 6.78720093 11.3528061c11.62400818-6.3031006 47.82958984-10.65083314 91.29281616-39.63084794z"/>
    <g transform="rotate(-62.000022 159.49714943 30.33680654)">
      <path fill="rgb(44,82,130)" fill-rule="evenodd" d="M133.99913483-1.00295352l16 62.67952011h48.87031787l-7.28676343-62.67952011h-57.58355444z"/>
      <path fill="rgb(44,82,130)" fill-rule="evenodd" d="M124.99913483-1.00295352c-7.89684126 23.67081912-3 62.67952011-3 62.67952011h49.87031787l13.71323657-62.67952011h-60.58355444z"/>
    </g>
    <path fill="rgb(228,228,228)" fill-rule="evenodd" d="M260.77355797 125.6458691c-.61772946-.99468352-1.95401596-1.24832288-2.89325185-.54916557 0 0-3.49411575 2.60098296-4.88725779 4.91955964-1.39314203 2.3185767-3.2933658 7.23093446-3.2933658 7.23093446l48.3457835 29.04909013s5.62792439-5.09777187 1.866216-8.03414344c-3.7617084-2.93637157-6.20672727-4.95032266-6.20672727-4.95032266l-16.45151437-23.51926947c-.32292314-.46165454-.96328498-.56554917-1.41560248-.22967248l-3.54966163 2.63586661s-4.81241141-.5047326-7.16236456-1.91672753c-2.34995314-1.41199492-4.35225375-4.6361497-4.35225375-4.6361497z"/>
  </g>
  <g>
    <g transform="rotate(-21.000008 1428.08921446 -790.7982743)">
      <g>
        <use fill="rgb(255,245,247)" xlink:href="#path-146"/>
        <use fill-opacity="0" stroke="rgb(250,245,255)" stroke-linecap="butt" stroke-linejoin="miter" stroke-width="2" mask="url(#mask-147)" xlink:href="#path-146"/>
      </g>
      <path fill="rgb(212,161,129)" fill-rule="evenodd" d="M83.18537903 83.62252808c6.47563171 3.90315246 12.83821106 5.78901672 15.82492065 5.01914978 7.48927307-1.9304657 8.17785645-29.32840348 2.38304138-40.12952423-5.79481506-10.80112458-35.58501434-15.5089531-37.0865631 5.89151763-.52114106 7.42742539 2.59758758 14.05592347 7.20549774 19.4646759L63.25 112.3782196h24l-4.06462097-28.75569152z"/>
      <g>
        <use fill="rgb(255,245,247)" xlink:href="#path-149"/>
        <use fill-opacity="0" stroke="rgb(250,245,255)" stroke-linecap="butt" stroke-linejoin="miter" stroke-width="1" xlink:href="#path-149"/>
      </g>
    </g>
    <g transform="translate(357.46666667 521.17798595)">
      <path fill="rgb(212,161,129)" fill-rule="evenodd" d="M2.01430421 151.35990704c8.12204983-3.69080602 20.09722973-10.54535242 22.01278422-13.1588519 3.91831106-5.34595096 27.51208921-62.82597221 27.51208921-62.82597221l17.61122051 3.18877838s-30.66004902 60.84133416-32.84309983 64.33840804c-2.83585833 4.54279365-.7365825 12.23978152.68689387 17.45893876.22021717.8074366.4242609 1.55556946.59135712 2.22353432-3.40288697.8552099-4.61717516-1.11785515-5.89735913-3.19797348-1.44593151-2.34944008-2.9759222-4.83545428-7.83844505-3.53713594-1.87862442.50160714-3.68993307 1.16688602-5.4595698 1.8168764-6.11273566 2.24518091-11.72819228 4.30770646-17.90321449-1.18938022-.97896947-.871486-1.7327369-3.63577439 1.52734337-5.11722215zm276.26851116-41.13680698c-6.58904197-1.53285974-13.80606104-4.46455337-21.6510882-8.79508636l-39.21709565-5.30887821 7.03619996-17.4371205 31.82132377 12.52028072c13.71594636-1.34295181 20.34824971-1.01968487 19.89694262.96982912-.6769916 2.98426552-4.76360986 2.2623643-5.5465231 4.20261673-.78294475 1.94023934 3.6756629 5.9619562 8.06991671 9.5975426 4.39428426 3.63558429 1.44456605 4.30453895-.40967611 4.2508159z"/>
      <path fill="rgb(102,126,234)" fill-rule="evenodd" d="M138.49851942 1.7462226l-9.66161243 6.34624632c.64319439 2.72061595 1.39056843 6.62341816 2.24680091 11.09472495 2.6874021 14.03379913 6.4472499 33.66793882 11.4247151 39.9280542 19.55546295 24.59478768 53.22756083 31.01754095 89.68997148 41.1300726l4.76472934-17.66159501c-1.04110017-.47069458-2.07484174-.94663568-3.10133434-1.42774757 1.15656537-.67605152 2.00052951-1.85928463 2.19195057-3.28996937.32957793-2.46333129-1.4001734-4.7274282-3.8634972-5.05700758-5.00606293-.66978992-9.51801909-.48536525-13.4904908.58695958-34.23959377-19.07184044-59.68655473-44.24379303-80.20123263-71.64973812z"/>
      <path fill="rgb(195,218,254)" fill-rule="evenodd" d="M90 113.90974514s47.15748912 5.18050972 74.23623368 0c2.23658324-.42788694 2.13836408-10.06934415 1.10115136-12.70251694-16.15210168-41.0053539-26.77708318-71.02319574-26.77708318-99.50459086C134.11474082 4.02477624 123 2.39864042 123 2.39864042 103.08620167 31.7496339 93.93253778 65.42654073 90 113.90974514z"/>
      <path fill="rgb(127,156,245)" fill-rule="evenodd" d="M30.19255066 114.40551758C57.98120689 34.97990036 114.97566796 0 114.97566796 0h11.37275695c-1.288208 17.0356636 4.76454926 41.82602692 11.7860794 70.58420563 11.22952271 45.99293518 24.93689729 102.13440704 15.05608369 152.93390655-12.14893341 2.71307373-26.42422486.8607483-41.8783722-1.14453125C89.00826074 219.47947693 64.2489376 216.26678467 39.8828125 226c1.53489304-33.24934387 32.2807827-72.30978394 44.27602959-107.24298096-1.06732941-1.00491333-1.62430573-2.5109787-1.35095215-4.06122589l.52094269-2.954422c.35275268-2.00056457 1.97971344-3.4590454 3.89885711-3.68782043.33564759-1.50036621.62503815-2.99069214.8640442-4.4701004 1.22116088-7.55883026.44158935-15.02864075-.32922364-22.41448975-.42320251-4.05512237-.84375763-8.08493042-.92910004-12.09026337-13.39304352 11.93140412-29.60540771 32.73410798-43.28546333 68.79235077l-18.8867855-5.5575714c.72219276-2.68302918 1.4789543-5.3220215 2.26766013-7.91726685-2.1860733-1.20500946-4.7633953-6.92612458-2.92221641-7.88005066 1.9454174-1.00793457 4.00953674-1.7091446 6.1859455-2.11064148z"/>
      <path fill="rgb(0,0,0)" fill-opacity=".1" fill-rule="evenodd" d="M119.10575879 1l-5.1591552 15.86544512 10.389393 11.8935984-9.389393 9.346463L137.66225107 77l-27.77866455-38.81678806 9.22217227-9.42416841-9.22217227-10.51058527L119.10575879 1z"/>
      <path fill="rgb(0,0,0)" fill-opacity=".4" fill-rule="evenodd" d="M127 88c0-2.20765686 1.79234314-4 4-4s4 1.79234314 4 4-1.79234314 4-4 4-4-1.79234314-4-4zm5 23c0-2.20765686 1.79234314-4 4-4s4 1.79234314 4 4-1.79234314 4-4 4-4-1.79234314-4-4zm1 23c0-2.20765686 1.79234314-4 4-4s4 1.79234314 4 4-1.79234314 4-4 4-4-1.79234314-4-4z"/>
    </g>
  </g>
</svg>
